#Comment line ignore any data following # character 
#Hierarchical Translation and Rotation (.htr) file 
[Header]	
#Header keywords are followed by a single value 
FileType HTR		#Single word string
DataType HTRS		#Translation followed by rotation and scale data
FileVersion 1		#integer
NumSegments 84		#integer
NumFrames 2		#integer
DataFrameRate 30		#integer, data frame rate in this file
EulerRotationOrder ZYX
CalibrationUnits mm
RotationUnits Degrees
GlobalAxisofGravity Y
BoneLengthAxis Y
ScaleFactor 1.00
[SegmentNames&Hierarchy]
#CHILD	PARENT
MASTER GLOBAL
root MASTER
chest root
L_mid_tent01 root
R_mid_tent01 root
spine01 root
Bip01_Neck chest
L_humerus chest
R_humerus chest
weapon_bone chest
Bip01_Head Bip01_Neck
eye_left_bone Bip01_Head
eye_right_bone Bip01_Head
L_forearm L_humerus
L_front_hand L_forearm
L_weapon_bone L_forearm
L_front_hand01_01 L_front_hand
L_front_hand02_01 L_front_hand
L_front_hand03_01 L_front_hand
L_front_hand01_02 L_front_hand01_01
L_front_hand02_02 L_front_hand02_01
L_front_hand03_02 L_front_hand03_01
R_forearm R_humerus
R_front_hand R_forearm
R_weapon_bone R_forearm
R_front_hand01_01 R_front_hand
R_front_hand02_01 R_front_hand
R_front_hand03_01 R_front_hand
R_front_hand01_02 R_front_hand01_01
R_front_hand02_02 R_front_hand02_01
R_front_hand03_02 R_front_hand03_01
null_rope01_connect L_mid_tent01
Rope1_Seg01 null_rope01_connect
Rope1_Seg02 Rope1_Seg01
Rope1_Seg03 Rope1_Seg02
Rope1_Seg04 Rope1_Seg03
Rope1_Seg05 Rope1_Seg04
Rope1_Seg06 Rope1_Seg05
Rope1_Seg07 Rope1_Seg06
Rope1_Seg09 Rope1_Seg07
L_mid_hand01 Rope1_Seg09
L_mid_hand02 Rope1_Seg09
L_mid_hand03 Rope1_Seg09
null_rope02_connect R_mid_tent01
Rope2_Seg01 null_rope02_connect
Rope2_Seg02 Rope2_Seg01
Rope2_Seg03 Rope2_Seg02
Rope2_Seg04 Rope2_Seg03
Rope2_Seg05 Rope2_Seg04
Rope2_Seg06 Rope2_Seg05
Rope2_Seg07 Rope2_Seg06
Rope2_Seg09 Rope2_Seg07
R_mid_hand01 Rope2_Seg09
R_mid_hand02 Rope2_Seg09
R_mid_hand03 Rope2_Seg09
spine02 spine01
spine03 spine02
pelvis spine03
null_rope03_connect pelvis
null_rope04_connect pelvis
Rope3_Seg01 null_rope03_connect
Rope3_Seg02 Rope3_Seg01
Rope3_Seg03 Rope3_Seg02
Rope3_Seg04 Rope3_Seg03
Rope3_Seg05 Rope3_Seg04
Rope3_Seg06 Rope3_Seg05
Rope3_Seg07 Rope3_Seg06
Rope3_Seg08 Rope3_Seg07
Rope3_Seg09 Rope3_Seg08
R_rear_hand01 Rope3_Seg09
R_rear_hand02 Rope3_Seg09
R_rear_hand03 Rope3_Seg09
Rope4_Seg01 null_rope04_connect
Rope4_Seg02 Rope4_Seg01
Rope4_Seg03 Rope4_Seg02
Rope4_Seg04 Rope4_Seg03
Rope4_Seg05 Rope4_Seg04
Rope4_Seg06 Rope4_Seg05
Rope4_Seg07 Rope4_Seg06
Rope4_Seg08 Rope4_Seg07
Rope4_Seg09 Rope4_Seg08
L_rear_hand01 Rope4_Seg09
L_rear_hand02 Rope4_Seg09
L_rear_hand03 Rope4_Seg09
[BasePosition]
#SegmentName Tx, Ty, Tz, Rx, Ry, Rz, BoneLength
MASTER 0.000000 0.000000 0.000000 -90.000000 0.000000 0.000000 10.000000 
root 0.000000 0.000000 0.000000 0.000000 0.000000 0.000000 10.000000 
chest 0.000000 0.000000 0.000000 0.000000 0.000000 0.000000 10.000000 
L_mid_tent01 0.000000 0.000000 0.000000 0.000000 0.000000 0.000000 10.000000 
R_mid_tent01 0.000000 0.000000 0.000000 0.000000 0.000000 0.000000 10.000000 
spine01 0.000000 0.000000 0.000000 0.000000 0.000000 0.000000 10.000000 
Bip01_Neck 0.000000 0.000000 0.000000 0.000000 0.000000 0.000000 10.000000 
L_humerus 0.000000 0.000000 0.000000 0.000000 0.000000 0.000000 10.000000 
R_humerus 0.000000 0.000000 0.000000 0.000000 0.000000 0.000000 10.000000 
weapon_bone 0.000000 0.000000 0.000000 0.000000 0.000000 0.000000 10.000000 
Bip01_Head 0.000000 0.000000 0.000000 0.000000 0.000000 0.000000 10.000000 
eye_left_bone 0.000000 0.000000 0.000000 0.000000 0.000000 0.000000 10.000000 
eye_right_bone 0.000000 0.000000 0.000000 0.000000 0.000000 0.000000 10.000000 
L_forearm 0.000000 0.000000 0.000000 0.000000 0.000000 0.000000 10.000000 
L_front_hand 0.000000 0.000000 0.000000 0.000000 0.000000 0.000000 10.000000 
L_weapon_bone 0.000000 0.000000 0.000000 0.000000 0.000000 0.000000 10.000000 
L_front_hand01_01 0.000000 0.000000 0.000000 0.000000 0.000000 0.000000 10.000000 
L_front_hand02_01 0.000000 0.000000 0.000000 0.000000 0.000000 0.000000 10.000000 
L_front_hand03_01 0.000000 0.000000 0.000000 0.000000 0.000000 0.000000 10.000000 
L_front_hand01_02 0.000000 0.000000 0.000000 0.000000 0.000000 0.000000 10.000000 
L_front_hand02_02 0.000000 0.000000 0.000000 0.000000 0.000000 0.000000 10.000000 
L_front_hand03_02 0.000000 0.000000 0.000000 0.000000 0.000000 0.000000 10.000000 
R_forearm 0.000000 0.000000 0.000000 0.000000 0.000000 0.000000 10.000000 
R_front_hand 0.000000 0.000000 0.000000 0.000000 0.000000 0.000000 10.000000 
R_weapon_bone 0.000000 0.000000 0.000000 0.000000 0.000000 0.000000 10.000000 
R_front_hand01_01 0.000000 0.000000 0.000000 0.000000 0.000000 0.000000 10.000000 
R_front_hand02_01 0.000000 0.000000 0.000000 0.000000 0.000000 0.000000 10.000000 
R_front_hand03_01 0.000000 0.000000 0.000000 0.000000 0.000000 0.000000 10.000000 
R_front_hand01_02 0.000000 0.000000 0.000000 0.000000 0.000000 0.000000 10.000000 
R_front_hand02_02 0.000000 0.000000 0.000000 0.000000 0.000000 0.000000 10.000000 
R_front_hand03_02 0.000000 0.000000 0.000000 0.000000 0.000000 0.000000 10.000000 
null_rope01_connect 0.000000 0.000000 0.000000 0.000000 0.000000 0.000000 10.000000 
Rope1_Seg01 0.000000 0.000000 0.000000 0.000000 0.000000 0.000000 10.000000 
Rope1_Seg02 0.000000 0.000000 0.000000 0.000000 0.000000 0.000000 10.000000 
Rope1_Seg03 0.000000 0.000000 0.000000 0.000000 0.000000 0.000000 10.000000 
Rope1_Seg04 0.000000 0.000000 0.000000 0.000000 0.000000 0.000000 10.000000 
Rope1_Seg05 0.000000 0.000000 0.000000 0.000000 0.000000 0.000000 10.000000 
Rope1_Seg06 0.000000 0.000000 0.000000 0.000000 0.000000 0.000000 10.000000 
Rope1_Seg07 0.000000 0.000000 0.000000 0.000000 0.000000 0.000000 10.000000 
Rope1_Seg09 0.000000 0.000000 0.000000 0.000000 0.000000 0.000000 10.000000 
L_mid_hand01 0.000000 0.000000 0.000000 0.000000 0.000000 0.000000 10.000000 
L_mid_hand02 0.000000 0.000000 0.000000 0.000000 0.000000 0.000000 10.000000 
L_mid_hand03 0.000000 0.000000 0.000000 0.000000 0.000000 0.000000 10.000000 
null_rope02_connect 0.000000 0.000000 0.000000 0.000000 0.000000 0.000000 10.000000 
Rope2_Seg01 0.000000 0.000000 0.000000 0.000000 0.000000 0.000000 10.000000 
Rope2_Seg02 0.000000 0.000000 0.000000 0.000000 0.000000 0.000000 10.000000 
Rope2_Seg03 0.000000 0.000000 0.000000 0.000000 0.000000 0.000000 10.000000 
Rope2_Seg04 0.000000 0.000000 0.000000 0.000000 0.000000 0.000000 10.000000 
Rope2_Seg05 0.000000 0.000000 0.000000 0.000000 0.000000 0.000000 10.000000 
Rope2_Seg06 0.000000 0.000000 0.000000 0.000000 0.000000 0.000000 10.000000 
Rope2_Seg07 0.000000 0.000000 0.000000 0.000000 0.000000 0.000000 10.000000 
Rope2_Seg09 0.000000 0.000000 0.000000 0.000000 0.000000 0.000000 10.000000 
R_mid_hand01 0.000000 0.000000 0.000000 0.000000 0.000000 0.000000 10.000000 
R_mid_hand02 0.000000 0.000000 0.000000 0.000000 0.000000 0.000000 10.000000 
R_mid_hand03 0.000000 0.000000 0.000000 0.000000 0.000000 0.000000 10.000000 
spine02 0.000000 0.000000 0.000000 0.000000 0.000000 0.000000 10.000000 
spine03 0.000000 0.000000 0.000000 0.000000 0.000000 0.000000 10.000000 
pelvis 0.000000 0.000000 0.000000 0.000000 0.000000 0.000000 10.000000 
null_rope03_connect 0.000000 0.000000 0.000000 0.000000 0.000000 0.000000 10.000000 
null_rope04_connect 0.000000 0.000000 0.000000 0.000000 0.000000 0.000000 10.000000 
Rope3_Seg01 0.000000 0.000000 0.000000 0.000000 0.000000 0.000000 10.000000 
Rope3_Seg02 0.000000 0.000000 0.000000 0.000000 0.000000 0.000000 10.000000 
Rope3_Seg03 0.000000 0.000000 0.000000 0.000000 0.000000 0.000000 10.000000 
Rope3_Seg04 0.000000 0.000000 0.000000 0.000000 0.000000 0.000000 10.000000 
Rope3_Seg05 0.000000 0.000000 0.000000 0.000000 0.000000 0.000000 10.000000 
Rope3_Seg06 0.000000 0.000000 0.000000 0.000000 0.000000 0.000000 10.000000 
Rope3_Seg07 0.000000 0.000000 0.000000 0.000000 0.000000 0.000000 10.000000 
Rope3_Seg08 0.000000 0.000000 0.000000 0.000000 0.000000 0.000000 10.000000 
Rope3_Seg09 0.000000 0.000000 0.000000 0.000000 0.000000 0.000000 10.000000 
R_rear_hand01 0.000000 0.000000 0.000000 0.000000 0.000000 0.000000 10.000000 
R_rear_hand02 0.000000 0.000000 0.000000 0.000000 0.000000 0.000000 10.000000 
R_rear_hand03 0.000000 0.000000 0.000000 0.000000 0.000000 0.000000 10.000000 
Rope4_Seg01 0.000000 0.000000 0.000000 0.000000 0.000000 0.000000 10.000000 
Rope4_Seg02 0.000000 0.000000 0.000000 0.000000 0.000000 0.000000 10.000000 
Rope4_Seg03 0.000000 0.000000 0.000000 0.000000 0.000000 0.000000 10.000000 
Rope4_Seg04 0.000000 0.000000 0.000000 0.000000 0.000000 0.000000 10.000000 
Rope4_Seg05 0.000000 0.000000 0.000000 0.000000 0.000000 0.000000 10.000000 
Rope4_Seg06 0.000000 0.000000 0.000000 0.000000 0.000000 0.000000 10.000000 
Rope4_Seg07 0.000000 0.000000 0.000000 0.000000 0.000000 0.000000 10.000000 
Rope4_Seg08 0.000000 0.000000 0.000000 0.000000 0.000000 0.000000 10.000000 
Rope4_Seg09 0.000000 0.000000 0.000000 0.000000 0.000000 0.000000 10.000000 
L_rear_hand01 0.000000 0.000000 0.000000 0.000000 0.000000 0.000000 10.000000 
L_rear_hand02 0.000000 0.000000 0.000000 0.000000 0.000000 0.000000 10.000000 
L_rear_hand03 0.000000 0.000000 0.000000 0.000000 0.000000 0.000000 10.000000 
#Beginning of Data. Separated by tabs
#Fr	Tx	Ty	Tz	Rx	Ry	Rz	SF
[MASTER]
10 0.000000 0.000000 0.000000 0.001660 0.001660 0.001660 0.000000
11 0.000000 0.000000 0.000000 0.001660 0.001660 0.001660 0.000000
[root]
10 -16.502291 -62.822117 1502.657593 -91.629700 -27.676081 -90.148109 1504.060791
11 -16.502291 -62.822117 1502.657593 -91.629700 -27.676081 -90.148109 1504.060791
[chest]
10 -84.512650 -34.090519 0.000000 -1.711235 0.340417 -174.999542 91.129311
11 -84.512650 -34.090519 0.000000 -1.516628 0.289819 -172.962708 91.129311
[L_mid_tent01]
10 27.299500 22.177483 -249.917984 -9.935524 35.278957 59.560226 252.380859
11 27.299500 22.177483 -249.917984 -7.152837 36.554951 63.949226 252.380859
[R_mid_tent01]
10 23.228794 24.509907 226.238495 170.611191 -40.596416 68.322746 228.744751
11 23.228794 24.509907 226.238495 168.393143 -42.711979 72.338463 228.744751
[spine01]
10 -0.361383 -0.195265 0.000000 0.001884 0.001401 16.706999 0.410763
11 -0.361383 -0.195265 0.000000 0.001885 0.001399 16.837345 0.410763
[Bip01_Neck]
10 165.484543 71.581718 0.000119 175.896118 1.177290 24.871183 180.302734
11 165.484543 71.581718 0.000119 175.896118 1.177290 24.871183 180.302734
[L_humerus]
10 -13.983130 -135.272980 -120.471481 -179.178314 10.509205 -118.643394 181.680161
11 -13.983130 -135.272980 -120.471481 -177.184891 5.594207 -120.319740 181.680161
[R_humerus]
10 -13.983309 -135.273102 125.287651 -177.497650 -7.893188 -118.988388 184.909012
11 -13.983309 -135.273102 125.287651 -179.639572 -1.607667 -121.842201 184.909012
[weapon_bone]
10 235.964890 -300.705902 0.000000 0.000000 -89.951546 -128.212341 382.234833
11 235.964890 -300.705902 0.000000 0.000000 -89.951546 -128.212341 382.234833
[Bip01_Head]
10 125.639450 132.872925 13.073548 2.037718 3.665202 -22.487503 183.334122
11 116.662025 92.799065 10.259686 2.448692 3.575681 -21.756084 149.422073
[eye_left_bone]
10 -24.626970 125.451866 -64.772606 0.000000 -90.000000 -99.840431 143.318359
11 -24.626970 125.451866 -64.772606 0.000000 -90.000000 -99.840431 143.318359
[eye_right_bone]
10 -24.626970 125.451866 64.327362 0.000000 -89.960434 80.159386 143.117676
11 -24.626970 125.451866 64.327362 0.000000 -89.960434 80.159386 143.117676
[L_forearm]
10 322.776093 0.000000 -0.000119 0.000321 0.002325 -74.285927 322.776093
11 322.776093 0.000000 -0.000119 0.000317 0.002326 -74.481361 322.776093
[L_front_hand]
10 241.149185 -0.042021 -3.300071 -179.716156 -2.250604 1.331713 241.171753
11 241.149185 -0.042021 -3.300071 -179.755997 -2.257567 2.346681 241.171753
[L_weapon_bone]
10 156.183838 0.000000 0.000000 0.001739 0.001576 5.642019 156.183838
11 156.183838 0.000000 0.000000 0.001756 0.001558 6.820842 156.183838
[L_front_hand01_01]
10 86.095154 20.947098 -0.655860 0.337032 -0.494159 3.700273 88.609184
11 86.095154 20.947098 -0.655860 0.405585 -0.442306 -4.620490 88.609184
[L_front_hand02_01]
10 86.935165 -11.437475 24.513514 116.964653 -3.786660 -2.273062 91.046425
11 86.935165 -11.437475 24.513514 116.959450 3.630817 1.495453 91.046425
[L_front_hand03_01]
10 86.637497 -14.123976 -20.424902 -118.354561 2.663028 -4.108076 90.126129
11 86.637497 -14.123976 -20.424902 -118.420097 -4.656303 -0.152527 90.126129
[L_front_hand01_02]
10 71.020905 -0.000179 0.000030 0.001534 0.001777 -8.378848 71.020905
11 71.020905 -0.000179 0.000030 0.001534 0.001777 -8.378848 71.020905
[L_front_hand02_02]
10 71.020927 -0.000119 0.000060 0.001534 0.001777 -8.378848 71.020927
11 71.020927 -0.000119 0.000060 0.001534 0.001777 -8.378848 71.020927
[L_front_hand03_02]
10 71.020905 -0.000060 0.000060 0.001534 0.001777 -8.378848 71.020905
11 71.020905 -0.000060 0.000060 0.001534 0.001777 -8.378848 71.020905
[R_forearm]
10 322.776428 -0.000060 0.000030 0.191678 -0.100807 -63.182350 322.776428
11 322.776428 -0.000060 0.000030 0.193120 -0.097235 -64.315697 322.776428
[R_front_hand]
10 238.847015 -0.006795 2.210259 -0.765470 1.547249 -14.978981 238.857239
11 238.847015 -0.006795 2.210259 -0.654022 1.597961 -10.931117 238.857239
[R_weapon_bone]
10 155.664093 0.002503 -0.000030 0.003452 0.001277 -94.204300 155.664078
11 155.664093 0.002503 -0.000030 0.003444 0.001298 -94.911163 155.664078
[R_front_hand01_01]
10 87.624611 14.231146 22.918642 -116.972237 -3.923297 2.448966 91.683487
11 87.624611 14.231146 22.918642 -116.960213 3.496675 -1.324139 91.683487
[R_front_hand02_01]
10 89.356956 14.367283 -19.491137 118.378357 3.066408 4.563783 92.579636
11 89.356956 14.367283 -19.491137 118.419647 -4.257089 0.609827 92.579636
[R_front_hand03_01]
10 87.286232 -22.307278 -0.143439 -0.354272 -0.288120 -4.088430 90.091743
11 87.286232 -22.307278 -0.143439 -0.387970 -0.231462 4.232001 90.091743
[R_front_hand01_02]
10 71.020905 0.000060 0.000119 0.001777 0.001534 8.377220 71.020905
11 71.020905 0.000060 0.000119 0.001777 0.001534 8.377220 71.020905
[R_front_hand02_02]
10 71.020844 -0.000030 -0.000119 0.001777 0.001534 8.377220 71.020836
11 71.020844 -0.000030 -0.000119 0.001777 0.001534 8.377220 71.020836
[R_front_hand03_02]
10 71.020905 0.000000 0.000030 0.001777 0.001534 8.377220 71.020905
11 71.020905 0.000000 0.000030 0.001777 0.001534 8.377220 71.020905
[null_rope01_connect]
10 328.732483 0.000000 -0.000238 -139.106400 -51.840183 -165.859131 328.732483
11 328.732483 0.000000 -0.000238 -138.535507 -51.172123 -170.009216 328.732483
[Rope1_Seg01]
10 0.000000 0.000000 0.000000 105.463989 26.267851 125.876328 0.000000
11 0.000000 0.000000 0.000000 104.100464 25.998964 123.203499 0.000000
[Rope1_Seg02]
10 139.999863 -0.000179 0.000000 -1.293418 -8.477203 -2.739634 139.999863
11 139.999863 -0.000179 0.000000 -1.252380 -6.770489 -1.499871 139.999863
[Rope1_Seg03]
10 139.999924 0.000060 -0.000060 -2.735509 -13.149345 -7.322712 139.999924
11 139.999924 0.000060 -0.000060 -2.657481 -10.510987 -3.450597 139.999924
[Rope1_Seg04]
10 139.999924 -0.000060 -0.000119 -4.422751 -18.909128 -13.370945 139.999924
11 139.999924 -0.000060 -0.000119 -5.507852 -18.549637 -14.855503 139.999924
[Rope1_Seg05]
10 139.999832 0.000119 -0.000060 3.099256 -9.546658 23.403572 139.999832
11 139.999832 0.000119 -0.000060 -1.569159 -14.937365 19.817871 139.999832
[Rope1_Seg06]
10 139.999954 0.000119 -0.000060 6.550326 -2.653860 12.062438 139.999954
11 139.999954 0.000119 -0.000060 7.716662 -4.931237 14.590549 139.999954
[Rope1_Seg07]
10 139.999985 0.000060 0.000000 3.099604 -1.318283 4.855926 139.999985
11 139.999985 0.000060 0.000000 3.098940 -2.185968 5.070770 139.999985
[Rope1_Seg09]
10 121.602913 0.000119 -0.000089 -89.793175 -1.359789 0.847147 121.602913
11 121.602913 0.000119 -0.000089 -89.793175 -1.359789 0.847147 121.602913
[L_mid_hand01]
10 103.859421 1.038730 8.195221 107.067162 -32.339252 -9.859066 104.187431
11 103.859421 1.038730 8.195221 106.940163 -31.685472 -9.619579 104.187431
[L_mid_hand02]
10 105.572853 -4.139662 -10.864139 -142.779175 26.451260 -29.790676 106.211075
11 105.572853 -4.139662 -10.864139 -142.509949 26.037582 -29.183001 106.211075
[L_mid_hand03]
10 104.641464 17.579376 -3.913581 -15.930392 10.051391 35.345699 106.179977
11 104.641464 17.579376 -3.913581 -16.043446 9.861147 34.676407 106.179977
[null_rope02_connect]
10 328.732849 0.000179 -0.000119 -115.352127 49.956181 12.157755 328.732849
11 328.732849 0.000179 -0.000119 -116.899178 47.501575 13.556843 328.732849
[Rope2_Seg01]
10 0.000095 0.000153 0.000014 -46.978584 29.811846 52.390461 0.000180
11 0.000095 0.000153 0.000015 -45.655315 31.220037 55.313103 0.000181
[Rope2_Seg02]
10 139.999741 -0.000060 -0.000119 -0.302236 -1.915625 5.142794 139.999756
11 139.999741 -0.000060 -0.000119 -0.131208 -2.636741 3.621535 139.999756
[Rope2_Seg03]
10 140.000107 0.000030 0.000000 0.039571 0.673126 7.286980 140.000107
11 140.000107 0.000030 0.000000 0.102080 -2.043274 5.472723 140.000107
[Rope2_Seg04]
10 139.999802 0.000000 -0.000060 0.367237 -3.782925 10.569416 139.999802
11 139.999802 0.000000 -0.000060 0.818665 -4.179395 10.264915 139.999802
[Rope2_Seg05]
10 139.999985 -0.000060 0.000119 -3.913837 -25.073936 3.473123 139.999985
11 139.999985 -0.000060 0.000119 -4.824462 -25.920216 4.130015 139.999985
[Rope2_Seg06]
10 139.999893 -0.000030 -0.000119 -2.340881 -8.695545 0.864287 139.999893
11 139.999893 -0.000030 -0.000119 -2.824510 -8.254027 0.542789 139.999893
[Rope2_Seg07]
10 139.999893 0.000060 -0.000060 -1.317239 -4.202965 0.470694 139.999893
11 139.999893 0.000060 -0.000060 -1.508144 -3.838134 0.309540 139.999893
[Rope2_Seg09]
10 121.338966 0.000089 -0.000060 33.793236 -1.359788 -0.847141 121.338966
11 121.338966 0.000089 -0.000060 33.793236 -1.359788 -0.847141 121.338966
[R_mid_hand01]
10 104.680779 11.144459 -10.335981 -41.362823 25.715498 28.965616 105.778534
11 104.680779 11.144459 -10.335981 -41.594921 25.287420 28.422993 105.778534
[R_mid_hand02]
10 104.070427 2.443552 8.231699 72.766556 -33.166298 10.167211 104.424065
11 104.070427 2.443552 8.231699 72.888313 -32.549355 9.943675 104.424065
[R_mid_hand03]
10 106.028137 -11.221827 -5.996406 -167.978226 10.349519 -37.446167 106.788818
11 106.028137 -11.221827 -5.996406 -167.863220 10.218179 -36.805157 106.788818
[spine02]
10 129.756927 0.001550 0.000119 -0.626179 -4.022539 0.966453 129.756927
11 129.756927 0.001550 0.000119 -0.665291 -4.015464 1.518380 129.756927
[spine03]
10 78.704071 0.071570 -4.017013 -0.057141 4.387179 -10.167994 78.806557
11 78.714111 0.069824 -3.919037 -0.116869 4.393732 -10.898728 78.811646
[pelvis]
10 169.435242 0.051022 0.000000 -1.256756 -0.815505 0.927123 169.435257
11 169.435242 0.051022 0.000000 -1.397400 -0.881144 1.242369 169.435257
[null_rope03_connect]
10 -1.257226 -2.466202 137.391083 -163.162277 -87.124245 -87.599205 137.418976
11 -1.257226 -2.466202 137.391083 -164.212204 -86.937523 -86.816444 137.418976
[null_rope04_connect]
10 -1.259640 -2.480268 -137.844437 -163.162277 -87.124245 -87.599205 137.872513
11 -1.259640 -2.480268 -137.844437 -164.212204 -86.937523 -86.816444 137.872513
[Rope3_Seg01]
10 0.000000 0.000000 0.000000 -146.627029 -53.514977 -65.549377 0.000000
11 0.000000 0.000000 0.000000 -146.016281 -54.099640 -66.571991 0.000000
[Rope3_Seg02]
10 139.999924 -0.000119 0.000060 -4.831818 5.280087 -10.532357 139.999924
11 139.999924 -0.000119 0.000060 -4.369215 4.783206 -10.135276 139.999924
[Rope3_Seg03]
10 139.999924 -0.000119 0.000119 -14.935348 11.931068 -20.448109 139.999924
11 139.999924 -0.000119 0.000119 -15.506451 11.805301 -21.800228 139.999924
[Rope3_Seg04]
10 139.999924 0.000119 0.000000 -26.717655 23.034069 -23.404764 139.999924
11 139.999924 0.000119 0.000000 -31.109261 25.155430 -27.077360 139.999924
[Rope3_Seg05]
10 139.999924 -0.000238 0.000060 -12.579822 17.926517 -8.561345 139.999924
11 139.999924 -0.000238 0.000060 -12.366369 18.730900 -7.799849 139.999924
[Rope3_Seg06]
10 139.999893 -0.000119 -0.000060 -12.373201 22.892075 -9.733438 139.999893
11 139.999893 -0.000119 -0.000060 -10.610317 21.422173 -8.260978 139.999893
[Rope3_Seg07]
10 139.999771 0.000060 -0.000119 -8.047341 27.914358 -6.875875 139.999771
11 139.999771 0.000060 -0.000119 -8.433519 29.689190 -7.984582 139.999771
[Rope3_Seg08]
10 139.999985 -0.000060 0.000000 -0.525285 12.008197 -0.943755 139.999985
11 139.999985 -0.000060 0.000000 -0.356928 12.576120 -1.177101 139.999985
[Rope3_Seg09]
10 90.185997 -0.000179 -0.000060 89.793228 -1.359877 -0.847183 90.185997
11 90.185997 -0.000179 -0.000060 89.793228 -1.359877 -0.847183 90.185997
[R_rear_hand01]
10 103.366196 -6.073594 -10.757982 -161.751846 16.886715 -30.791090 104.101845
11 103.366196 -6.073594 -10.757982 -161.585831 16.702343 -30.199265 104.101845
[R_rear_hand02]
10 100.509819 12.039542 -7.992327 -34.076275 19.684610 29.493853 101.543350
11 100.509819 12.039542 -7.992327 -34.249741 19.353521 28.971661 101.543350
[R_rear_hand03]
10 101.539970 5.215704 5.435467 83.313919 -31.634277 7.383167 101.819031
11 101.539970 5.215704 5.435467 83.361961 -31.045082 7.299178 101.819031
[Rope4_Seg01]
10 0.000000 0.000000 0.000000 47.517521 -38.920689 -97.990067 0.000000
11 0.000000 0.000000 0.000000 47.546322 -40.866333 -97.660164 0.000000
[Rope4_Seg02]
10 139.999985 0.000060 0.000119 1.963294 -15.331427 6.364151 139.999985
11 139.999985 0.000060 0.000119 1.944508 -14.813913 5.872064 139.999985
[Rope4_Seg03]
10 139.999924 0.000000 -0.000238 12.004657 -33.631237 17.849186 139.999924
11 139.999924 0.000000 -0.000238 13.017492 -35.790936 18.576811 139.999924
[Rope4_Seg04]
10 139.999985 0.000000 0.000119 22.991467 -24.752644 23.633659 139.999985
11 139.999985 0.000000 0.000119 24.535191 -24.990330 25.446289 139.999985
[Rope4_Seg05]
10 139.999802 -0.000060 -0.000119 10.158764 -4.122518 12.140457 139.999802
11 139.999802 -0.000060 -0.000119 9.944333 -3.655886 12.265037 139.999802
[Rope4_Seg06]
10 139.999924 0.000000 0.000060 9.227831 -1.318851 14.488467 139.999924
11 139.999924 0.000000 0.000060 9.398403 -1.539253 15.126182 139.999924
[Rope4_Seg07]
10 139.999802 0.000000 0.000000 10.722216 2.506593 28.183279 139.999802
11 139.999802 0.000000 0.000000 10.739548 1.921414 29.346376 139.999802
[Rope4_Seg08]
10 139.999924 0.000000 0.000119 1.299274 4.605659 17.796240 139.999924
11 139.999924 0.000000 0.000119 1.128762 4.520027 18.364073 139.999924
[Rope4_Seg09]
10 90.185791 0.000060 0.000060 -135.617828 2.228885 0.850567 90.185791
11 90.185791 0.000060 0.000060 -135.617828 2.228885 0.850567 90.185791
[L_rear_hand01]
10 101.696655 -8.392275 -7.654577 -34.276230 -19.292719 151.118912 102.329041
11 101.696655 -8.392275 -7.654577 -34.462982 -18.927914 151.685226 102.329041
[L_rear_hand02]
10 102.726799 -1.568258 5.773216 83.366272 30.940062 172.713608 102.900848
11 102.726799 -1.568258 5.773216 83.406242 30.293350 172.798645 102.900848
[L_rear_hand03]
10 104.552910 9.721220 -10.420293 -161.556976 -16.669996 -149.900009 105.519653
11 104.552910 9.721220 -10.420293 -161.371536 -16.463383 -150.547073 105.519653
